#Comment line ignore any data following # character 
#Hierarchical Translation and Rotation (.htr) file 
[Header]	
#Header keywords are followed by a single value 
FileType HTR		#Single word string
DataType HTRS		#Translation followed by rotation and scale data
FileVersion 1		#integer
NumSegments 84		#integer
NumFrames 2		#integer
DataFrameRate 30		#integer, data frame rate in this file
EulerRotationOrder ZYX
CalibrationUnits mm
RotationUnits Degrees
GlobalAxisofGravity Y
BoneLengthAxis Y
ScaleFactor 1.00
[SegmentNames&Hierarchy]
#CHILD	PARENT
MASTER GLOBAL
root MASTER
chest root
L_mid_tent01 root
R_mid_tent01 root
spine01 root
Bip01_Neck chest
L_humerus chest
R_humerus chest
weapon_bone chest
Bip01_Head Bip01_Neck
eye_left_bone Bip01_Head
eye_right_bone Bip01_Head
L_forearm L_humerus
L_front_hand L_forearm
L_weapon_bone L_forearm
L_front_hand01_01 L_front_hand
L_front_hand02_01 L_front_hand
L_front_hand03_01 L_front_hand
L_front_hand01_02 L_front_hand01_01
L_front_hand02_02 L_front_hand02_01
L_front_hand03_02 L_front_hand03_01
R_forearm R_humerus
R_front_hand R_forearm
R_weapon_bone R_forearm
R_front_hand01_01 R_front_hand
R_front_hand02_01 R_front_hand
R_front_hand03_01 R_front_hand
R_front_hand01_02 R_front_hand01_01
R_front_hand02_02 R_front_hand02_01
R_front_hand03_02 R_front_hand03_01
null_rope01_connect L_mid_tent01
Rope1_Seg01 null_rope01_connect
Rope1_Seg02 Rope1_Seg01
Rope1_Seg03 Rope1_Seg02
Rope1_Seg04 Rope1_Seg03
Rope1_Seg05 Rope1_Seg04
Rope1_Seg06 Rope1_Seg05
Rope1_Seg07 Rope1_Seg06
Rope1_Seg09 Rope1_Seg07
L_mid_hand01 Rope1_Seg09
L_mid_hand02 Rope1_Seg09
L_mid_hand03 Rope1_Seg09
null_rope02_connect R_mid_tent01
Rope2_Seg01 null_rope02_connect
Rope2_Seg02 Rope2_Seg01
Rope2_Seg03 Rope2_Seg02
Rope2_Seg04 Rope2_Seg03
Rope2_Seg05 Rope2_Seg04
Rope2_Seg06 Rope2_Seg05
Rope2_Seg07 Rope2_Seg06
Rope2_Seg09 Rope2_Seg07
R_mid_hand01 Rope2_Seg09
R_mid_hand02 Rope2_Seg09
R_mid_hand03 Rope2_Seg09
spine02 spine01
spine03 spine02
pelvis spine03
null_rope03_connect pelvis
null_rope04_connect pelvis
Rope3_Seg01 null_rope03_connect
Rope3_Seg02 Rope3_Seg01
Rope3_Seg03 Rope3_Seg02
Rope3_Seg04 Rope3_Seg03
Rope3_Seg05 Rope3_Seg04
Rope3_Seg06 Rope3_Seg05
Rope3_Seg07 Rope3_Seg06
Rope3_Seg08 Rope3_Seg07
Rope3_Seg09 Rope3_Seg08
R_rear_hand01 Rope3_Seg09
R_rear_hand02 Rope3_Seg09
R_rear_hand03 Rope3_Seg09
Rope4_Seg01 null_rope04_connect
Rope4_Seg02 Rope4_Seg01
Rope4_Seg03 Rope4_Seg02
Rope4_Seg04 Rope4_Seg03
Rope4_Seg05 Rope4_Seg04
Rope4_Seg06 Rope4_Seg05
Rope4_Seg07 Rope4_Seg06
Rope4_Seg08 Rope4_Seg07
Rope4_Seg09 Rope4_Seg08
L_rear_hand01 Rope4_Seg09
L_rear_hand02 Rope4_Seg09
L_rear_hand03 Rope4_Seg09
[BasePosition]
#SegmentName Tx, Ty, Tz, Rx, Ry, Rz, BoneLength
MASTER 0.000000 0.000000 0.000000 -90.000000 0.000000 0.000000 10.000000 
root 0.000000 0.000000 0.000000 0.000000 0.000000 0.000000 10.000000 
chest 0.000000 0.000000 0.000000 0.000000 0.000000 0.000000 10.000000 
L_mid_tent01 0.000000 0.000000 0.000000 0.000000 0.000000 0.000000 10.000000 
R_mid_tent01 0.000000 0.000000 0.000000 0.000000 0.000000 0.000000 10.000000 
spine01 0.000000 0.000000 0.000000 0.000000 0.000000 0.000000 10.000000 
Bip01_Neck 0.000000 0.000000 0.000000 0.000000 0.000000 0.000000 10.000000 
L_humerus 0.000000 0.000000 0.000000 0.000000 0.000000 0.000000 10.000000 
R_humerus 0.000000 0.000000 0.000000 0.000000 0.000000 0.000000 10.000000 
weapon_bone 0.000000 0.000000 0.000000 0.000000 0.000000 0.000000 10.000000 
Bip01_Head 0.000000 0.000000 0.000000 0.000000 0.000000 0.000000 10.000000 
eye_left_bone 0.000000 0.000000 0.000000 0.000000 0.000000 0.000000 10.000000 
eye_right_bone 0.000000 0.000000 0.000000 0.000000 0.000000 0.000000 10.000000 
L_forearm 0.000000 0.000000 0.000000 0.000000 0.000000 0.000000 10.000000 
L_front_hand 0.000000 0.000000 0.000000 0.000000 0.000000 0.000000 10.000000 
L_weapon_bone 0.000000 0.000000 0.000000 0.000000 0.000000 0.000000 10.000000 
L_front_hand01_01 0.000000 0.000000 0.000000 0.000000 0.000000 0.000000 10.000000 
L_front_hand02_01 0.000000 0.000000 0.000000 0.000000 0.000000 0.000000 10.000000 
L_front_hand03_01 0.000000 0.000000 0.000000 0.000000 0.000000 0.000000 10.000000 
L_front_hand01_02 0.000000 0.000000 0.000000 0.000000 0.000000 0.000000 10.000000 
L_front_hand02_02 0.000000 0.000000 0.000000 0.000000 0.000000 0.000000 10.000000 
L_front_hand03_02 0.000000 0.000000 0.000000 0.000000 0.000000 0.000000 10.000000 
R_forearm 0.000000 0.000000 0.000000 0.000000 0.000000 0.000000 10.000000 
R_front_hand 0.000000 0.000000 0.000000 0.000000 0.000000 0.000000 10.000000 
R_weapon_bone 0.000000 0.000000 0.000000 0.000000 0.000000 0.000000 10.000000 
R_front_hand01_01 0.000000 0.000000 0.000000 0.000000 0.000000 0.000000 10.000000 
R_front_hand02_01 0.000000 0.000000 0.000000 0.000000 0.000000 0.000000 10.000000 
R_front_hand03_01 0.000000 0.000000 0.000000 0.000000 0.000000 0.000000 10.000000 
R_front_hand01_02 0.000000 0.000000 0.000000 0.000000 0.000000 0.000000 10.000000 
R_front_hand02_02 0.000000 0.000000 0.000000 0.000000 0.000000 0.000000 10.000000 
R_front_hand03_02 0.000000 0.000000 0.000000 0.000000 0.000000 0.000000 10.000000 
null_rope01_connect 0.000000 0.000000 0.000000 0.000000 0.000000 0.000000 10.000000 
Rope1_Seg01 0.000000 0.000000 0.000000 0.000000 0.000000 0.000000 10.000000 
Rope1_Seg02 0.000000 0.000000 0.000000 0.000000 0.000000 0.000000 10.000000 
Rope1_Seg03 0.000000 0.000000 0.000000 0.000000 0.000000 0.000000 10.000000 
Rope1_Seg04 0.000000 0.000000 0.000000 0.000000 0.000000 0.000000 10.000000 
Rope1_Seg05 0.000000 0.000000 0.000000 0.000000 0.000000 0.000000 10.000000 
Rope1_Seg06 0.000000 0.000000 0.000000 0.000000 0.000000 0.000000 10.000000 
Rope1_Seg07 0.000000 0.000000 0.000000 0.000000 0.000000 0.000000 10.000000 
Rope1_Seg09 0.000000 0.000000 0.000000 0.000000 0.000000 0.000000 10.000000 
L_mid_hand01 0.000000 0.000000 0.000000 0.000000 0.000000 0.000000 10.000000 
L_mid_hand02 0.000000 0.000000 0.000000 0.000000 0.000000 0.000000 10.000000 
L_mid_hand03 0.000000 0.000000 0.000000 0.000000 0.000000 0.000000 10.000000 
null_rope02_connect 0.000000 0.000000 0.000000 0.000000 0.000000 0.000000 10.000000 
Rope2_Seg01 0.000000 0.000000 0.000000 0.000000 0.000000 0.000000 10.000000 
Rope2_Seg02 0.000000 0.000000 0.000000 0.000000 0.000000 0.000000 10.000000 
Rope2_Seg03 0.000000 0.000000 0.000000 0.000000 0.000000 0.000000 10.000000 
Rope2_Seg04 0.000000 0.000000 0.000000 0.000000 0.000000 0.000000 10.000000 
Rope2_Seg05 0.000000 0.000000 0.000000 0.000000 0.000000 0.000000 10.000000 
Rope2_Seg06 0.000000 0.000000 0.000000 0.000000 0.000000 0.000000 10.000000 
Rope2_Seg07 0.000000 0.000000 0.000000 0.000000 0.000000 0.000000 10.000000 
Rope2_Seg09 0.000000 0.000000 0.000000 0.000000 0.000000 0.000000 10.000000 
R_mid_hand01 0.000000 0.000000 0.000000 0.000000 0.000000 0.000000 10.000000 
R_mid_hand02 0.000000 0.000000 0.000000 0.000000 0.000000 0.000000 10.000000 
R_mid_hand03 0.000000 0.000000 0.000000 0.000000 0.000000 0.000000 10.000000 
spine02 0.000000 0.000000 0.000000 0.000000 0.000000 0.000000 10.000000 
spine03 0.000000 0.000000 0.000000 0.000000 0.000000 0.000000 10.000000 
pelvis 0.000000 0.000000 0.000000 0.000000 0.000000 0.000000 10.000000 
null_rope03_connect 0.000000 0.000000 0.000000 0.000000 0.000000 0.000000 10.000000 
null_rope04_connect 0.000000 0.000000 0.000000 0.000000 0.000000 0.000000 10.000000 
Rope3_Seg01 0.000000 0.000000 0.000000 0.000000 0.000000 0.000000 10.000000 
Rope3_Seg02 0.000000 0.000000 0.000000 0.000000 0.000000 0.000000 10.000000 
Rope3_Seg03 0.000000 0.000000 0.000000 0.000000 0.000000 0.000000 10.000000 
Rope3_Seg04 0.000000 0.000000 0.000000 0.000000 0.000000 0.000000 10.000000 
Rope3_Seg05 0.000000 0.000000 0.000000 0.000000 0.000000 0.000000 10.000000 
Rope3_Seg06 0.000000 0.000000 0.000000 0.000000 0.000000 0.000000 10.000000 
Rope3_Seg07 0.000000 0.000000 0.000000 0.000000 0.000000 0.000000 10.000000 
Rope3_Seg08 0.000000 0.000000 0.000000 0.000000 0.000000 0.000000 10.000000 
Rope3_Seg09 0.000000 0.000000 0.000000 0.000000 0.000000 0.000000 10.000000 
R_rear_hand01 0.000000 0.000000 0.000000 0.000000 0.000000 0.000000 10.000000 
R_rear_hand02 0.000000 0.000000 0.000000 0.000000 0.000000 0.000000 10.000000 
R_rear_hand03 0.000000 0.000000 0.000000 0.000000 0.000000 0.000000 10.000000 
Rope4_Seg01 0.000000 0.000000 0.000000 0.000000 0.000000 0.000000 10.000000 
Rope4_Seg02 0.000000 0.000000 0.000000 0.000000 0.000000 0.000000 10.000000 
Rope4_Seg03 0.000000 0.000000 0.000000 0.000000 0.000000 0.000000 10.000000 
Rope4_Seg04 0.000000 0.000000 0.000000 0.000000 0.000000 0.000000 10.000000 
Rope4_Seg05 0.000000 0.000000 0.000000 0.000000 0.000000 0.000000 10.000000 
Rope4_Seg06 0.000000 0.000000 0.000000 0.000000 0.000000 0.000000 10.000000 
Rope4_Seg07 0.000000 0.000000 0.000000 0.000000 0.000000 0.000000 10.000000 
Rope4_Seg08 0.000000 0.000000 0.000000 0.000000 0.000000 0.000000 10.000000 
Rope4_Seg09 0.000000 0.000000 0.000000 0.000000 0.000000 0.000000 10.000000 
L_rear_hand01 0.000000 0.000000 0.000000 0.000000 0.000000 0.000000 10.000000 
L_rear_hand02 0.000000 0.000000 0.000000 0.000000 0.000000 0.000000 10.000000 
L_rear_hand03 0.000000 0.000000 0.000000 0.000000 0.000000 0.000000 10.000000 
#Beginning of Data. Separated by tabs
#Fr	Tx	Ty	Tz	Rx	Ry	Rz	SF
[MASTER]
5 0.000000 0.000000 0.000000 0.001660 0.001660 0.001660 0.000000
6 0.000000 0.000000 0.000000 0.001660 0.001660 0.001660 0.000000
[root]
5 -25.417995 -20.373659 1470.964355 -99.540085 -17.500975 -94.453682 1471.324951
6 -28.966682 -29.253107 1479.977295 -102.438393 -19.450678 -95.701355 1480.549683
[chest]
5 -84.512650 -34.090519 0.000000 -1.833242 2.224512 153.502808 91.129311
6 -84.512650 -34.090519 0.000000 -1.975512 2.995518 150.284073 91.129311
[L_mid_tent01]
5 27.299128 22.179106 -249.918732 4.641299 8.786102 82.425583 252.381714
6 27.299131 22.179106 -249.918732 3.785915 12.874254 81.452225 252.381714
[R_mid_tent01]
5 23.228794 24.509907 226.238495 164.226883 -4.936835 76.419678 228.744751
6 23.228794 24.509907 226.238495 157.927261 -40.790489 90.488266 228.744751
[spine01]
5 -0.361383 -0.195265 0.000000 0.002062 0.001122 32.879829 0.410763
6 -0.361383 -0.195265 0.000000 0.002062 0.001122 32.879826 0.410763
[Bip01_Neck]
5 165.484543 71.581718 0.000119 176.643677 -1.657967 43.431915 180.302734
6 165.484543 71.581718 0.000119 176.643677 -1.657967 43.431911 180.302734
[L_humerus]
5 -13.983130 -135.272980 -120.471481 -159.431198 79.694237 -54.022179 181.680161
6 -13.983130 -135.272980 -120.471481 -175.127884 69.493988 -64.958221 181.680161
[R_humerus]
5 -13.983309 -135.273102 125.287651 147.708847 -75.551483 -51.072151 184.909012
6 -13.983309 -135.273102 125.287651 164.073593 -66.251625 -67.146652 184.909012
[weapon_bone]
5 235.964890 -300.705902 0.000000 0.000000 -89.951546 -128.212341 382.234833
6 235.964890 -300.705902 0.000000 0.000000 -89.951546 -128.212341 382.234833
[Bip01_Head]
5 213.444153 185.715500 11.776935 7.610372 2.832357 -43.901417 283.173706
6 213.444168 185.715515 11.776936 8.855665 2.849703 -43.900227 283.173737
[eye_left_bone]
5 -24.626970 125.451866 -64.772606 0.000000 -90.000000 -99.840431 143.318359
6 -24.626970 125.451866 -64.772606 0.000000 -90.000000 -99.840431 143.318359
[eye_right_bone]
5 -24.626970 125.451866 64.327362 0.000000 -89.980217 80.156380 143.117676
6 -24.626970 125.451866 64.327362 0.000000 -89.965736 80.156380 143.117676
[L_forearm]
5 322.776093 0.000000 -0.000119 0.000396 -0.002314 -109.419968 322.776093
6 322.776093 0.000000 -0.000119 0.000396 -0.002314 -109.419975 322.776093
[L_front_hand]
5 241.149185 -0.042021 -3.300071 -178.667953 -1.835447 -27.422350 241.171753
6 241.149185 -0.042021 -3.300071 -178.667953 -1.835447 -27.422350 241.171753
[L_weapon_bone]
5 156.183838 0.000000 0.000000 0.000014 0.000007 0.000001 156.183838
6 156.183838 0.000000 0.000000 0.000014 0.000007 0.000001 156.183838
[L_front_hand01_01]
5 86.095154 20.947098 -0.655860 -0.357155 -0.484301 74.072563 88.609184
6 86.095154 20.947098 -0.655860 -0.343298 -0.494452 72.684830 88.609184
[L_front_hand02_01]
5 86.935165 -11.437475 24.513514 152.402328 -59.295174 -59.049553 91.046425
6 86.935165 -11.437475 24.513514 150.381821 -58.634853 -56.693264 91.046425
[L_front_hand03_01]
5 86.637497 -14.123976 -20.424902 -152.063065 57.524338 -60.515717 90.126129
6 86.637497 -14.123976 -20.424902 -150.184570 56.852543 -58.280544 90.126129
[L_front_hand01_02]
5 71.020905 -0.000179 0.000030 0.000318 -0.002326 -105.586906 71.020905
6 71.020905 -0.000179 0.000030 0.000318 -0.002326 -105.549660 71.020905
[L_front_hand02_02]
5 71.020927 -0.000119 0.000060 0.000318 -0.002326 -105.586906 71.020927
6 71.020927 -0.000119 0.000060 0.000318 -0.002326 -105.549660 71.020927
[L_front_hand03_02]
5 71.020905 -0.000060 0.000060 0.000318 -0.002326 -105.586906 71.020905
6 71.020905 -0.000060 0.000060 0.000318 -0.002326 -105.549660 71.020905
[R_forearm]
5 322.776428 -0.000060 0.000030 0.202103 0.065158 -108.062805 322.776428
6 322.776428 -0.000060 0.000030 0.202103 0.065158 -108.062820 322.776428
[R_front_hand]
5 238.847015 -0.006795 2.210259 -2.635298 -10.645461 -26.312506 238.857239
6 238.847015 -0.006795 2.210259 -2.635298 -10.645461 -26.312506 238.857239
[R_weapon_bone]
5 155.664093 0.002503 -0.000030 0.003487 0.001180 -90.988930 155.664078
6 155.664093 0.002503 -0.000030 0.003487 0.001180 -90.988930 155.664078
[R_front_hand01_01]
5 87.624611 14.231146 22.918642 -152.915588 -59.455021 59.755939 91.683487
6 87.624611 14.231146 22.918642 -151.115143 -58.881374 57.655819 91.683487
[R_front_hand02_01]
5 89.356956 14.367283 -19.491137 152.994324 57.809788 61.851429 92.579636
6 89.356956 14.367283 -19.491137 151.297714 57.240032 59.838207 92.579636
[R_front_hand03_01]
5 87.286232 -22.307278 -0.143439 0.154106 -0.427723 -74.656677 90.091743
6 87.286232 -22.307278 -0.143439 0.145555 -0.432305 -73.430145 90.091743
[R_front_hand01_02]
5 71.020905 0.000060 0.000119 0.002323 -0.000334 106.381714 71.020905
6 71.020905 0.000060 0.000119 0.002323 -0.000334 106.381714 71.020905
[R_front_hand02_02]
5 71.020844 -0.000030 -0.000119 0.002323 -0.000334 106.381714 71.020836
6 71.020844 -0.000030 -0.000119 0.002323 -0.000334 106.381714 71.020836
[R_front_hand03_02]
5 71.020905 0.000000 0.000030 0.002323 -0.000334 106.381714 71.020905
6 71.020905 0.000000 0.000030 0.002323 -0.000334 106.381714 71.020905
[null_rope01_connect]
5 328.732483 0.000000 -0.000238 -134.791275 -68.561287 160.111969 328.732483
6 328.732483 0.000000 -0.000238 -138.267715 -61.311222 166.246628 328.732483
[Rope1_Seg01]
5 -0.000035 0.000032 0.000130 95.969658 -17.198395 -165.113663 0.000139
6 -0.000035 0.000031 0.000124 107.497536 -3.927774 -175.900650 0.000133
[Rope1_Seg02]
5 139.999863 -0.000179 0.000000 6.360538 -8.121319 -6.829638 139.999863
6 139.999863 -0.000179 0.000000 3.933543 -8.458625 -2.050957 139.999863
[Rope1_Seg03]
5 139.999924 0.000060 -0.000060 2.583101 1.707737 -8.125153 139.999924
6 139.999924 0.000060 -0.000060 -1.336326 5.843991 -3.305899 139.999924
[Rope1_Seg04]
5 139.999924 -0.000060 -0.000119 12.249734 -35.853916 -2.652849 139.999924
6 139.999924 -0.000060 -0.000119 6.511041 -32.650490 2.465295 139.999924
[Rope1_Seg05]
5 139.999832 0.000119 -0.000060 -1.690233 -25.240311 6.846137 139.999832
6 139.999832 0.000119 -0.000060 -2.733121 -25.219444 6.252560 139.999832
[Rope1_Seg06]
5 139.999954 0.000119 -0.000060 -1.169538 -6.873934 1.350287 139.999954
6 139.999954 0.000119 -0.000060 -1.427298 -6.560116 1.247724 139.999954
[Rope1_Seg07]
5 139.999985 0.000060 0.000000 -0.795908 -3.669273 0.645704 139.999985
6 139.999985 0.000060 0.000000 -0.952004 -3.579811 0.590567 139.999985
[Rope1_Seg09]
5 121.602913 0.000119 -0.000089 -89.793175 -1.359789 0.847147 121.602913
6 121.602913 0.000119 -0.000089 -89.793175 -1.359789 0.847147 121.602913
[L_mid_hand01]
5 103.859421 1.038730 8.195221 113.610565 -51.761482 -19.481262 104.187431
6 103.859421 1.038730 8.195221 111.013054 -46.268597 -16.045177 104.187431
[L_mid_hand02]
5 105.572853 -4.139662 -10.864139 -153.873215 37.432976 -50.500263 106.211075
6 105.572853 -4.139662 -10.864139 -150.060638 34.639904 -44.022499 106.211075
[L_mid_hand03]
5 104.641464 17.579376 -3.913581 -11.422822 14.986384 55.900566 106.179977
6 104.641464 17.579376 -3.913581 -12.911116 13.738300 49.909939 106.179977
[null_rope02_connect]
5 328.732849 0.000179 -0.000119 -34.752182 74.385963 115.377579 328.732849
6 328.732849 0.000179 -0.000119 -125.461533 59.491405 28.984715 328.732849
[Rope2_Seg01]
5 0.000042 0.000111 0.000000 -169.962982 38.026524 -47.578785 0.000118
6 0.000034 0.000110 0.000000 99.452301 26.736483 -127.220291 0.000115
[Rope2_Seg02]
5 139.999741 -0.000060 -0.000119 35.659290 -25.672106 -16.715818 139.999756
6 139.999741 -0.000060 -0.000119 7.633449 -1.045869 -25.146362 139.999756
[Rope2_Seg03]
5 140.000107 0.000030 0.000000 5.202996 -10.574844 -1.971790 140.000107
6 140.000107 0.000030 0.000000 9.025071 -2.671958 -20.124184 140.000107
[Rope2_Seg04]
5 139.999802 0.000000 -0.000060 0.563200 -4.748508 1.141581 139.999802
6 139.999802 0.000000 -0.000060 5.456804 -2.651985 -10.440105 139.999802
[Rope2_Seg05]
5 139.999985 -0.000060 0.000119 -1.328367 -6.245617 5.019140 139.999985
6 139.999985 -0.000060 0.000119 2.340730 -3.079337 -3.773285 139.999985
[Rope2_Seg06]
5 139.999893 -0.000030 -0.000119 -3.690692 -15.618245 14.839681 139.999893
6 139.999893 -0.000030 -0.000119 2.479861 -8.747963 -2.624218 139.999893
[Rope2_Seg07]
5 139.999893 0.000060 -0.000060 -1.988932 -20.135088 16.473949 139.999893
6 139.999893 0.000060 -0.000060 6.879920 -33.607864 -15.209430 139.999893
[Rope2_Seg09]
5 121.338966 0.000089 -0.000060 33.793236 -1.359788 -0.847141 121.338966
6 121.338966 0.000089 -0.000060 33.793236 -1.359788 -0.847141 121.338966
[R_mid_hand01]
5 104.680779 11.144459 -10.335981 -23.980095 42.262276 59.248196 105.778534
6 104.680779 11.144459 -10.335981 -26.991890 40.639961 54.704479 105.778534
[R_mid_hand02]
5 104.070427 2.443552 8.231699 59.529949 -60.717201 27.702354 104.424065
6 104.070427 2.443552 8.231699 62.577366 -57.416607 24.150814 104.424065
[R_mid_hand03]
5 106.028137 -11.221827 -5.996406 -174.753189 14.937831 -67.669342 106.788818
6 106.028137 -11.221827 -5.996406 -173.762711 14.561017 -63.787186 106.788818
[spine02]
5 129.756927 0.001550 0.000119 0.360061 -4.044797 -12.915057 129.756927
6 129.756927 0.001550 0.000119 0.360061 -4.044797 -12.915058 129.756927
[spine03]
5 78.614067 0.081635 -4.899007 1.896495 3.831288 16.473049 78.766602
6 78.614067 0.081635 -4.899008 1.896495 3.831288 16.473045 78.766602
[pelvis]
5 169.435242 0.051022 0.000000 -0.060465 -0.180225 14.087930 169.435257
6 169.435242 0.051022 0.000000 -0.060465 -0.180225 14.087930 169.435257
[null_rope03_connect]
5 -1.257226 -2.466202 137.391083 -137.492294 -79.160149 -165.807205 137.418976
6 -1.257226 -2.466202 137.391083 -137.448364 -75.552795 -164.109772 137.418976
[null_rope04_connect]
5 -1.259640 -2.480268 -137.844437 -137.492294 -79.160149 -165.807205 137.872513
6 -1.259640 -2.480268 -137.844437 -137.448364 -75.552795 -164.109772 137.872513
[Rope3_Seg01]
5 0.000010 0.000032 -0.000130 -131.927383 -13.812484 -73.707771 0.000134
6 0.000010 0.000031 -0.000124 -132.163345 -10.303744 -68.959457 0.000129
[Rope3_Seg02]
5 139.999924 -0.000119 0.000060 6.876974 -20.359629 -27.518103 139.999924
6 139.999924 -0.000119 0.000060 6.501409 -19.466551 -26.856449 139.999924
[Rope3_Seg03]
5 139.999924 -0.000119 0.000119 9.299791 -14.894863 -15.303142 139.999924
6 139.999924 -0.000119 0.000119 7.939474 -13.231725 -14.024686 139.999924
[Rope3_Seg04]
5 139.999924 0.000119 0.000000 7.617636 -7.371881 -6.636743 139.999924
6 139.999924 0.000119 0.000000 7.395609 -7.165164 -6.632351 139.999924
[Rope3_Seg05]
5 139.999924 -0.000238 0.000060 14.909625 -8.321181 -9.954285 139.999924
6 139.999924 -0.000238 0.000060 27.110235 -9.406067 -10.463968 139.999924
[Rope3_Seg06]
5 139.999893 -0.000119 -0.000060 157.891998 -16.078215 -13.639578 139.999893
6 139.999893 -0.000119 -0.000060 139.372025 -17.501463 -8.165419 139.999893
[Rope3_Seg07]
5 139.999771 0.000060 -0.000119 3.620747 7.230217 13.163652 139.999771
6 139.999771 0.000060 -0.000119 4.506277 5.012356 10.632187 139.999771
[Rope3_Seg08]
5 139.999985 -0.000060 0.000000 1.299715 4.754747 7.595365 139.999985
6 139.999985 -0.000060 0.000000 1.480232 3.251812 5.662015 139.999985
[Rope3_Seg09]
5 90.185997 -0.000179 -0.000060 89.793228 -1.359877 -0.847183 90.185997
6 90.185997 -0.000179 -0.000060 89.793228 -1.359877 -0.847183 90.185997
[R_rear_hand01]
5 103.366196 -6.073594 -10.757982 -172.764847 23.642401 -61.838581 104.101845
6 103.366196 -6.073594 -10.757982 -170.781738 22.978724 -56.829582 104.101845
[R_rear_hand02]
5 100.509819 12.039542 -7.992327 -20.398050 33.690151 59.182018 101.543350
6 100.509819 12.039542 -7.992327 -23.182875 31.961977 54.046593 101.543350
[R_rear_hand03]
5 101.539970 5.215704 5.435467 78.159676 -61.130318 14.266941 101.819031
6 101.539970 5.215704 5.435467 79.640480 -56.568924 12.537928 101.819031
[Rope4_Seg01]
5 0.000010 0.000038 -0.000114 46.744637 -27.619955 -93.530792 0.000121
6 0.000010 0.000038 -0.000114 47.368038 -41.476795 -93.659515 0.000121
[Rope4_Seg02]
5 139.999985 0.000060 0.000119 6.617085 -36.231472 -20.836704 139.999985
6 139.999985 0.000060 0.000119 7.255847 -37.747974 -21.565929 139.999985
[Rope4_Seg03]
5 139.999924 0.000000 -0.000238 -2.224225 -21.628750 -13.476667 139.999924
6 139.999924 0.000000 -0.000238 -5.341527 -18.885748 -12.737655 139.999924
[Rope4_Seg04]
5 139.999985 0.000000 0.000119 -7.567923 -7.890600 -6.002425 139.999985
6 139.999985 0.000000 0.000119 -10.718897 -6.376779 -5.770807 139.999985
[Rope4_Seg05]
5 139.999802 -0.000060 -0.000119 6.461014 -3.095827 0.020145 139.999802
6 139.999802 -0.000060 -0.000119 10.340181 -3.180045 0.583237 139.999802
[Rope4_Seg06]
5 139.999924 0.000000 0.000060 23.243313 -2.033615 4.660285 139.999924
6 139.999924 0.000000 0.000060 31.438873 -2.588035 5.870253 139.999924
[Rope4_Seg07]
5 139.999802 0.000000 0.000000 23.588940 1.139128 9.024529 139.999802
6 139.999802 0.000000 0.000000 24.498047 2.951047 11.141638 139.999802
[Rope4_Seg08]
5 139.999924 0.000000 0.000119 9.331558 1.589154 5.686702 139.999924
6 139.999924 0.000000 0.000119 6.806277 3.315209 5.935919 139.999924
[Rope4_Seg09]
5 90.185791 0.000060 0.000060 -135.617828 2.228885 0.850567 90.185791
6 90.185791 0.000060 0.000060 -135.617828 2.228885 0.850567 90.185791
[L_rear_hand01]
5 101.696655 -8.392275 -7.654577 -30.312384 -25.388178 140.722504 102.329041
6 101.696655 -8.392275 -7.654577 -31.684452 -23.583008 144.025742 102.329041
[L_rear_hand02]
5 102.726799 -1.568258 5.773216 82.305199 42.231194 170.945724 102.900848
6 102.726799 -1.568258 5.773216 82.701553 38.753956 171.553619 102.900848
[L_rear_hand03]
5 104.552910 9.721220 -10.420293 -165.172501 -19.938982 -138.422043 105.519653
6 104.552910 9.721220 -10.420293 -163.975403 -19.004421 -142.009338 105.519653
